<svg width="592" height="61" viewBox="0 0 592 61" fill="none" xmlns="http://www.w3.org/2000/svg">
<g filter="url(#filter0_d_116_3)">
<path d="M17.008 35.48C14.608 35.48 12.384 35.048 10.336 34.184C8.288 33.32 6.496 32.12 4.96 30.584C3.456 29.016 2.288 27.176 1.456 25.064C0.624 22.952 0.208 20.648 0.208 18.152C0.208 15.656 0.624 13.352 1.456 11.24C2.288 9.128 3.456 7.304 4.96 5.768C6.496 4.2 8.288 2.984 10.336 2.12C12.384 1.256 14.608 0.823999 17.008 0.823999C19.44 0.823999 21.68 1.256 23.728 2.12C25.776 2.984 27.552 4.2 29.056 5.768C30.56 7.336 31.728 9.176 32.56 11.288C33.392 13.368 33.808 15.656 33.808 18.152C33.808 20.616 33.392 22.904 32.56 25.016C31.728 27.128 30.56 28.968 29.056 30.536C27.552 32.104 25.776 33.32 23.728 34.184C21.68 35.048 19.44 35.48 17.008 35.48ZM17.008 29.528C18.544 29.528 19.936 29.256 21.184 28.712C22.464 28.136 23.568 27.336 24.496 26.312C25.424 25.256 26.144 24.04 26.656 22.664C27.2 21.288 27.472 19.784 27.472 18.152C27.472 16.52 27.2 15.016 26.656 13.64C26.144 12.264 25.424 11.064 24.496 10.04C23.568 8.984 22.464 8.184 21.184 7.64C19.936 7.064 18.544 6.776 17.008 6.776C15.504 6.776 14.112 7.064 12.832 7.64C11.552 8.184 10.448 8.968 9.52 9.992C8.592 11.016 7.872 12.216 7.36 13.592C6.848 14.968 6.592 16.488 6.592 18.152C6.592 19.784 6.848 21.304 7.36 22.712C7.872 24.088 8.592 25.288 9.52 26.312C10.448 27.336 11.552 28.136 12.832 28.712C14.112 29.256 15.504 29.528 17.008 29.528ZM47.7745 35V1.4H54.0145V29.24H69.5185V35H47.7745ZM96.352 35.288C93.696 35.288 91.328 34.728 89.248 33.608C87.168 32.456 85.52 30.888 84.304 28.904C83.12 26.888 82.528 24.616 82.528 22.088V1.352H88.816V21.656C88.816 23.16 89.152 24.504 89.824 25.688C90.528 26.84 91.456 27.768 92.608 28.472C93.76 29.176 95.008 29.528 96.352 29.528C97.824 29.528 99.152 29.176 100.336 28.472C101.52 27.768 102.448 26.84 103.12 25.688C103.824 24.504 104.176 23.16 104.176 21.656V1.352H110.224V22.088C110.224 24.616 109.616 26.888 108.4 28.904C107.216 30.888 105.584 32.456 103.504 33.608C101.424 34.728 99.04 35.288 96.352 35.288ZM132.833 35L122.369 1.4H128.897L134.849 21.224C135.041 21.832 135.217 22.504 135.377 23.24C135.537 23.976 135.681 24.712 135.809 25.448C135.937 26.152 136.049 26.808 136.145 27.416C136.241 28.024 136.337 28.536 136.433 28.952L135.137 28.904C135.521 27.4 135.825 26.184 136.049 25.256C136.273 24.328 136.465 23.56 136.625 22.952C136.817 22.312 137.009 21.72 137.201 21.176L142.865 6.68H148.193L153.713 21.176C154.033 22.072 154.321 22.936 154.577 23.768C154.833 24.568 155.041 25.368 155.201 26.168C155.393 26.936 155.569 27.736 155.729 28.568L154.577 28.808C154.705 28.04 154.801 27.416 154.865 26.936C154.929 26.456 154.993 26.024 155.057 25.64C155.121 25.256 155.185 24.888 155.249 24.536C155.313 24.152 155.409 23.704 155.537 23.192C155.697 22.648 155.889 21.96 156.113 21.128L162.017 1.4H168.497L157.985 35H153.473L144.929 14.552L145.505 14.744L137.393 35H132.833ZM175.365 35L188.469 1.4H194.325L207.333 35H200.853L193.653 15.896C193.493 15.512 193.269 14.904 192.981 14.072C192.725 13.24 192.437 12.344 192.117 11.384C191.797 10.392 191.509 9.48 191.253 8.648C190.997 7.784 190.805 7.16 190.677 6.776L191.877 6.728C191.685 7.368 191.461 8.088 191.205 8.888C190.949 9.688 190.677 10.52 190.389 11.384C190.101 12.248 189.813 13.08 189.525 13.88C189.269 14.68 189.029 15.4 188.805 16.04L181.605 35H175.365ZM181.317 27.32L183.477 21.896H198.789L201.093 27.32H181.317ZM224.154 35V7.16H214.554V1.4H240.282V7.16H230.394V35H224.154ZM266.645 35.48C264.245 35.48 262.021 35.048 259.973 34.184C257.925 33.32 256.133 32.12 254.597 30.584C253.093 29.016 251.925 27.176 251.093 25.064C250.261 22.952 249.845 20.648 249.845 18.152C249.845 15.656 250.261 13.352 251.093 11.24C251.925 9.128 253.093 7.304 254.597 5.768C256.133 4.2 257.925 2.984 259.973 2.12C262.021 1.256 264.245 0.823999 266.645 0.823999C269.077 0.823999 271.317 1.256 273.365 2.12C275.413 2.984 277.189 4.2 278.693 5.768C280.197 7.336 281.365 9.176 282.197 11.288C283.029 13.368 283.445 15.656 283.445 18.152C283.445 20.616 283.029 22.904 282.197 25.016C281.365 27.128 280.197 28.968 278.693 30.536C277.189 32.104 275.413 33.32 273.365 34.184C271.317 35.048 269.077 35.48 266.645 35.48ZM266.645 29.528C268.181 29.528 269.573 29.256 270.821 28.712C272.101 28.136 273.205 27.336 274.133 26.312C275.061 25.256 275.781 24.04 276.293 22.664C276.837 21.288 277.109 19.784 277.109 18.152C277.109 16.52 276.837 15.016 276.293 13.64C275.781 12.264 275.061 11.064 274.133 10.04C273.205 8.984 272.101 8.184 270.821 7.64C269.573 7.064 268.181 6.776 266.645 6.776C265.141 6.776 263.749 7.064 262.469 7.64C261.189 8.184 260.085 8.968 259.157 9.992C258.229 11.016 257.509 12.216 256.997 13.592C256.485 14.968 256.229 16.488 256.229 18.152C256.229 19.784 256.485 21.304 256.997 22.712C257.509 24.088 258.229 25.288 259.157 26.312C260.085 27.336 261.189 28.136 262.469 28.712C263.749 29.256 265.141 29.528 266.645 29.528ZM297.412 35V1.4H311.716C313.924 1.4 315.78 1.72 317.284 2.36C318.82 3 319.972 3.96 320.74 5.24C321.54 6.488 321.94 8.008 321.94 9.8C321.94 11.656 321.444 13.224 320.452 14.504C319.46 15.784 318.068 16.664 316.276 17.144L316.228 16.184C317.732 16.504 319.044 17.08 320.164 17.912C321.284 18.712 322.148 19.72 322.756 20.936C323.396 22.12 323.716 23.48 323.716 25.016C323.716 26.648 323.444 28.088 322.9 29.336C322.388 30.584 321.62 31.624 320.596 32.456C319.572 33.288 318.356 33.928 316.948 34.376C315.54 34.792 313.956 35 312.196 35H297.412ZM303.508 29.384H311.908C313.092 29.384 314.084 29.208 314.884 28.856C315.716 28.504 316.34 27.992 316.756 27.32C317.204 26.616 317.428 25.784 317.428 24.824C317.428 23.928 317.188 23.16 316.708 22.52C316.26 21.88 315.604 21.4 314.74 21.08C313.876 20.728 312.852 20.552 311.668 20.552H303.508V29.384ZM303.508 15.176H311.14C312.068 15.176 312.868 15 313.54 14.648C314.244 14.296 314.788 13.816 315.172 13.208C315.556 12.6 315.748 11.896 315.748 11.096C315.748 9.816 315.316 8.824 314.452 8.12C313.588 7.384 312.324 7.016 310.66 7.016H303.508V15.176ZM336.651 35V29.48H342.171V6.92H336.651V1.4H353.931V6.92H348.411V29.48H353.931V35H336.651ZM401.059 35.48C399.107 35.48 397.315 35.24 395.683 34.76C394.051 34.248 392.579 33.496 391.267 32.504C389.955 31.512 388.787 30.312 387.763 28.904L391.843 24.296C393.411 26.472 394.947 27.976 396.451 28.808C397.955 29.64 399.651 30.056 401.539 30.056C402.627 30.056 403.619 29.896 404.515 29.576C405.411 29.224 406.115 28.76 406.627 28.184C407.139 27.576 407.395 26.888 407.395 26.12C407.395 25.576 407.283 25.08 407.059 24.632C406.867 24.152 406.563 23.736 406.147 23.384C405.731 23 405.219 22.648 404.611 22.328C404.003 22.008 403.315 21.736 402.547 21.512C401.779 21.288 400.931 21.08 400.003 20.888C398.243 20.536 396.707 20.072 395.395 19.496C394.083 18.888 392.979 18.152 392.083 17.288C391.187 16.392 390.531 15.4 390.115 14.312C389.699 13.192 389.491 11.928 389.491 10.52C389.491 9.112 389.795 7.816 390.403 6.632C391.043 5.448 391.907 4.424 392.995 3.56C394.083 2.696 395.347 2.024 396.787 1.544C398.227 1.064 399.779 0.823999 401.443 0.823999C403.331 0.823999 405.011 1.048 406.483 1.496C407.987 1.944 409.299 2.616 410.419 3.512C411.571 4.376 412.515 5.432 413.251 6.68L409.123 10.76C408.483 9.768 407.763 8.952 406.963 8.312C406.163 7.64 405.299 7.144 404.371 6.824C403.443 6.472 402.467 6.296 401.443 6.296C400.291 6.296 399.283 6.456 398.419 6.776C397.587 7.096 396.931 7.56 396.451 8.168C395.971 8.744 395.731 9.448 395.731 10.28C395.731 10.92 395.875 11.496 396.163 12.008C396.451 12.488 396.851 12.92 397.363 13.304C397.907 13.688 398.595 14.024 399.427 14.312C400.259 14.6 401.203 14.856 402.259 15.08C404.019 15.432 405.603 15.912 407.011 16.52C408.419 17.096 409.619 17.8 410.611 18.632C411.603 19.432 412.355 20.36 412.867 21.416C413.379 22.44 413.635 23.592 413.635 24.872C413.635 27.08 413.107 28.984 412.051 30.584C411.027 32.152 409.571 33.368 407.683 34.232C405.795 35.064 403.587 35.48 401.059 35.48ZM423.952 35L437.056 1.4H442.912L455.92 35H449.44L442.24 15.896C442.08 15.512 441.856 14.904 441.568 14.072C441.312 13.24 441.024 12.344 440.704 11.384C440.384 10.392 440.096 9.48 439.84 8.648C439.584 7.784 439.392 7.16 439.264 6.776L440.464 6.728C440.272 7.368 440.048 8.088 439.792 8.888C439.536 9.688 439.264 10.52 438.976 11.384C438.688 12.248 438.4 13.08 438.112 13.88C437.856 14.68 437.616 15.4 437.392 16.04L430.192 35H423.952ZM429.904 27.32L432.064 21.896H447.376L449.68 27.32H429.904ZM468.412 35V1.4H474.652V29.24H490.156V35H468.412ZM500.743 35L513.847 1.4H519.703L532.711 35H526.231L519.031 15.896C518.871 15.512 518.647 14.904 518.359 14.072C518.103 13.24 517.815 12.344 517.495 11.384C517.175 10.392 516.887 9.48 516.631 8.648C516.375 7.784 516.183 7.16 516.055 6.776L517.255 6.728C517.063 7.368 516.839 8.088 516.583 8.888C516.327 9.688 516.055 10.52 515.767 11.384C515.479 12.248 515.191 13.08 514.903 13.88C514.647 14.68 514.407 15.4 514.183 16.04L506.983 35H500.743ZM506.695 27.32L508.855 21.896H524.167L526.471 27.32H506.695ZM557.705 35.288C555.049 35.288 552.681 34.728 550.601 33.608C548.521 32.456 546.873 30.888 545.657 28.904C544.473 26.888 543.881 24.616 543.881 22.088V1.352H550.169V21.656C550.169 23.16 550.505 24.504 551.177 25.688C551.881 26.84 552.809 27.768 553.961 28.472C555.113 29.176 556.361 29.528 557.705 29.528C559.177 29.528 560.505 29.176 561.689 28.472C562.873 27.768 563.801 26.84 564.473 25.688C565.177 24.504 565.529 23.16 565.529 21.656V1.352H571.577V22.088C571.577 24.616 570.969 26.888 569.753 28.904C568.569 30.888 566.937 32.456 564.857 33.608C562.777 34.728 560.393 35.288 557.705 35.288Z" fill="white"/>
</g>
<defs>
<filter id="filter0_d_116_3" x="0.208008" y="0.823975" width="591.369" height="59.656" filterUnits="userSpaceOnUse" color-interpolation-filters="sRGB">
<feFlood flood-opacity="0" result="BackgroundImageFix"/>
<feColorMatrix in="SourceAlpha" type="matrix" values="0 0 0 0 0 0 0 0 0 0 0 0 0 0 0 0 0 0 127 0" result="hardAlpha"/>
<feOffset dx="10" dy="15"/>
<feGaussianBlur stdDeviation="5"/>
<feComposite in2="hardAlpha" operator="out"/>
<feColorMatrix type="matrix" values="0 0 0 0 0 0 0 0 0 0 0 0 0 0 0 0 0 0 0.25 0"/>
<feBlend mode="normal" in2="BackgroundImageFix" result="effect1_dropShadow_116_3"/>
<feBlend mode="normal" in="SourceGraphic" in2="effect1_dropShadow_116_3" result="shape"/>
</filter>
</defs>
</svg>
